<?xml version="1.0" encoding="iso-8859-1"?>
<!-- Generator: Adobe Illustrator 21.0.0, SVG Export Plug-In . SVG Version: 6.00 Build 0)  -->
<svg xmlns="http://www.w3.org/2000/svg" xmlns:xlink="http://www.w3.org/1999/xlink" version="1.1" id="Capa_1" x="0px" y="0px" viewBox="0 0 512 512" style="enable-background:new 0 0 512 512;" xml:space="preserve" width="512" height="512">
<g>
	<g>
		<path d="M504.5,430.167c-4.143,0-7.5,3.357-7.5,7.5V458.5H244.5V196c0-4.143-3.358-7.5-7.5-7.5H67c-4.142,0-7.5,3.357-7.5,7.5    v262.5H15V181.667c0-4.143-3.358-7.5-7.5-7.5s-7.5,3.357-7.5,7.5V466c0,4.143,3.358,7.5,7.5,7.5h497c4.143,0,7.5-3.357,7.5-7.5    v-28.333C512,433.524,508.643,430.167,504.5,430.167z M74.5,458.5v-255h155v255H74.5z"/>
		<path d="M504.5,38.5H95c-4.142,0-7.5,3.357-7.5,7.5s3.358,7.5,7.5,7.5h402v55H15v-55h48.667c4.142,0,7.5-3.357,7.5-7.5    s-3.358-7.5-7.5-7.5H7.5C3.358,38.5,0,41.857,0,46v103.833c0,4.143,3.358,7.5,7.5,7.5s7.5-3.357,7.5-7.5V123.5h272.525V264    c0,4.143,3.357,7.5,7.5,7.5h148c4.143,0,7.5-3.357,7.5-7.5V123.5H497v282.333c0,4.143,3.357,7.5,7.5,7.5s7.5-3.357,7.5-7.5V46    C512,41.857,508.643,38.5,504.5,38.5z M435.525,256.5h-133v-19h133V256.5z M435.525,222.5h-133v-99h133V222.5z"/>
		<path d="M331,153.018h80c4.143,0,7.5-3.357,7.5-7.5s-3.357-7.5-7.5-7.5h-80c-4.143,0-7.5,3.357-7.5,7.5    S326.857,153.018,331,153.018z"/>
		<path d="M331,180.018h80c4.143,0,7.5-3.357,7.5-7.5s-3.357-7.5-7.5-7.5h-80c-4.143,0-7.5,3.357-7.5,7.5    S326.857,180.018,331,180.018z"/>
		<path d="M331,207.018h80c4.143,0,7.5-3.357,7.5-7.5s-3.357-7.5-7.5-7.5h-80c-4.143,0-7.5,3.357-7.5,7.5    S326.857,207.018,331,207.018z"/>
		<path d="M178,178.5c12.407,0,22.5-10.094,22.5-22.5s-10.093-22.5-22.5-22.5h-52c-12.407,0-22.5,10.094-22.5,22.5    s10.093,22.5,22.5,22.5H178z M118.5,156c0-4.136,3.364-7.5,7.5-7.5h52c4.136,0,7.5,3.364,7.5,7.5s-3.364,7.5-7.5,7.5h-52    C121.864,163.5,118.5,160.136,118.5,156z"/>
		<path d="M205.787,281.447c-3.575-2.091-8.168-0.889-10.26,2.687l-7.233,12.366h-18.186l15.901-15.901    c2.929-2.93,2.929-7.678,0-10.607c-2.929-2.928-7.678-2.928-10.606,0L159.5,285.893v-18.186l12.365-7.233    c3.576-2.091,4.779-6.686,2.687-10.261c-2.091-3.575-6.687-4.777-10.26-2.687L152,254.717l-12.292-7.19    c-3.572-2.091-8.169-0.889-10.26,2.687c-2.092,3.575-0.889,8.17,2.687,10.261l12.365,7.233v18.186l-15.901-15.901    c-2.928-2.927-7.677-2.929-10.606,0c-2.929,2.93-2.929,7.678,0,10.607l15.901,15.901h-18.186l-7.233-12.366    c-2.091-3.574-6.686-4.778-10.26-2.687c-3.576,2.091-4.779,6.685-2.687,10.261l7.19,12.292l-7.19,12.292    c-2.092,3.576-0.889,8.17,2.687,10.261c1.19,0.696,2.493,1.027,3.78,1.027c2.577,0,5.085-1.329,6.48-3.714l7.233-12.366h18.186    l-15.901,15.901c-2.929,2.93-2.929,7.678,0,10.607c1.464,1.464,3.384,2.196,5.303,2.196s3.839-0.732,5.303-2.196l15.901-15.901    v18.186l-12.365,7.233c-3.576,2.091-4.779,6.686-2.687,10.261c2.091,3.575,6.686,4.778,10.26,2.687l12.292-7.19l12.292,7.19    c1.19,0.696,2.493,1.027,3.78,1.027c2.577,0,5.085-1.329,6.48-3.714c2.092-3.575,0.889-8.17-2.687-10.261l-12.365-7.233v-18.186    l15.901,15.901c1.464,1.464,3.384,2.196,5.303,2.196c1.919,0,3.839-0.732,5.303-2.196c2.929-2.93,2.929-7.678,0-10.607    L170.107,311.5h18.186l7.233,12.366c1.395,2.385,3.903,3.714,6.48,3.714c1.286,0,2.59-0.331,3.78-1.027    c3.576-2.091,4.779-6.685,2.687-10.261L201.284,304l7.19-12.292C210.565,288.132,209.362,283.538,205.787,281.447z"/>
	</g>
</g>















</svg>
