<?xml version="1.0" encoding="iso-8859-1"?>
<!-- Generator: Adobe Illustrator 19.0.0, SVG Export Plug-In . SVG Version: 6.00 Build 0)  -->
<svg version="1.1" id="Capa_1" xmlns="http://www.w3.org/2000/svg" xmlns:xlink="http://www.w3.org/1999/xlink" x="0px" y="0px"
	 viewBox="0 0 512.003 512.003" style="enable-background:new 0 0 512.003 512.003;" xml:space="preserve">
<g>
	<g>
		<path d="M419.238,207.082h-13.842L293.637,3.886c-1.302-2.367-3.775-3.851-6.477-3.885C287.128,0,287.097,0,287.066,0
			c-2.665,0-5.133,1.415-6.479,3.721l-66.784,114.486l-24.279-32.374c-0.177-0.235-0.367-0.454-0.564-0.662
			c-0.054-0.056-0.111-0.108-0.166-0.163c-0.152-0.151-0.309-0.296-0.472-0.432c-0.065-0.054-0.131-0.106-0.198-0.158
			c-0.167-0.13-0.339-0.252-0.514-0.366c-0.065-0.042-0.128-0.086-0.195-0.126c-0.213-0.129-0.431-0.248-0.654-0.354
			c-0.033-0.016-0.063-0.035-0.096-0.05c-0.245-0.113-0.495-0.209-0.75-0.294c-0.108-0.037-0.218-0.065-0.328-0.096
			c-0.153-0.044-0.306-0.084-0.46-0.118c-0.126-0.028-0.252-0.052-0.379-0.073c-0.157-0.026-0.315-0.045-0.474-0.061
			c-0.114-0.011-0.226-0.026-0.341-0.032c-0.275-0.015-0.551-0.016-0.826-0.001c-0.005,0-0.011,0-0.016,0
			c-0.024,0.001-0.047,0.007-0.071,0.009c-0.256,0.017-0.512,0.049-0.766,0.092c-0.076,0.013-0.151,0.029-0.226,0.044
			c-0.211,0.043-0.42,0.095-0.627,0.156c-0.074,0.022-0.147,0.042-0.22,0.066c-0.224,0.074-0.445,0.159-0.664,0.255
			c-0.044,0.019-0.09,0.035-0.134,0.055c-0.257,0.119-0.51,0.252-0.756,0.402c-0.055,0.033-0.105,0.073-0.159,0.107
			c-0.15,0.096-0.3,0.191-0.444,0.299c-0.032,0.024-0.06,0.052-0.091,0.076c-0.079,0.061-0.154,0.128-0.231,0.192
			c-0.147,0.123-0.289,0.25-0.424,0.382c-0.068,0.067-0.135,0.135-0.2,0.204c-0.145,0.154-0.282,0.312-0.412,0.476
			c-0.046,0.057-0.094,0.113-0.138,0.172c-0.182,0.242-0.35,0.491-0.5,0.75l-70.29,120.498H92.765c-4.143,0-7.5,3.357-7.5,7.5
			s3.357,7.5,7.5,7.5h12.35l40.071,159.989c0.007,0.029,0.021,0.056,0.029,0.085c0.164,0.62,0.401,1.23,0.735,1.814
			c0.065,0.115,0.141,0.22,0.211,0.33c0.023,0.035,0.037,0.075,0.06,0.11l82.831,124.25c0.011,0.017,0.025,0.032,0.037,0.05
			c0.111,0.165,0.232,0.323,0.357,0.479c0.033,0.042,0.064,0.086,0.098,0.127c0.16,0.191,0.329,0.375,0.508,0.55
			c0.003,0.003,0.006,0.006,0.009,0.01c0.368,0.358,0.775,0.682,1.223,0.964c0.029,0.019,0.061,0.033,0.09,0.051
			c0.182,0.112,0.368,0.22,0.563,0.318c0.005,0.002,0.01,0.004,0.016,0.007c0.247,0.123,0.502,0.231,0.762,0.327
			c0.117,0.043,0.235,0.073,0.353,0.11c0.142,0.044,0.284,0.091,0.429,0.127c0.151,0.037,0.302,0.063,0.454,0.09
			c0.089,0.016,0.175,0.04,0.265,0.053c0.023,0.003,0.045,0.002,0.068,0.005c0.334,0.045,0.669,0.075,1.002,0.075
			c0.023,0,0.045-0.004,0.067-0.005c0.278-0.002,0.554-0.024,0.829-0.057c0.078-0.01,0.155-0.019,0.233-0.031
			c0.289-0.044,0.575-0.101,0.857-0.178c0.046-0.013,0.092-0.029,0.138-0.043c0.253-0.074,0.501-0.163,0.745-0.264
			c0.061-0.025,0.122-0.048,0.181-0.074c0.265-0.118,0.523-0.251,0.774-0.399c0.064-0.038,0.125-0.079,0.188-0.119
			c0.209-0.132,0.413-0.275,0.61-0.429c0.051-0.04,0.105-0.077,0.155-0.118c0.01-0.008,0.021-0.015,0.031-0.024l124.25-103.543
			c0.026-0.022,0.047-0.049,0.073-0.072c0.282-0.241,0.546-0.498,0.785-0.773c0.022-0.026,0.042-0.053,0.064-0.08
			c0.237-0.28,0.451-0.575,0.642-0.883c0.016-0.026,0.034-0.05,0.05-0.075c0.189-0.314,0.35-0.641,0.491-0.977
			c0.026-0.062,0.052-0.124,0.077-0.187c0.13-0.335,0.238-0.677,0.319-1.027c0.005-0.021,0.015-0.041,0.019-0.062l40.111-180.501
			h12.263c4.143,0,7.5-3.357,7.5-7.5S423.38,207.082,419.238,207.082z M184.306,103.877l20.547,27.397l19.262,25.684
			c1.474,1.965,3.726,3,6.006,3c1.565,0,3.145-0.488,4.494-1.5c3.313-2.485,3.985-7.187,1.5-10.5l-12.545-16.727l63.302-108.517
			l101.404,184.368H124.104L184.306,103.877z M379.578,222.082l-81.603,65.284l-65.286-65.284H379.578z M120.579,222.082h90.896
			l73.697,73.694l-127.839,73.052L120.579,222.082z M258.036,475.78l25.382-50.76c1.854-3.705,0.352-8.209-3.352-10.062
			c-3.706-1.852-8.211-0.351-10.063,3.354l-35.639,71.274l-71.206-106.812l131.606-75.204l55.041,91.736L258.036,475.78z
			 M356.3,380.974l-49.078-81.796l81.796-65.438L356.3,380.974z"/>
	</g>
</g>
<g>
	<g>
		<path d="M59.274,207.084H28.211c-4.143,0-7.5,3.357-7.5,7.5s3.357,7.5,7.5,7.5h31.063c4.143,0,7.5-3.357,7.5-7.5
			S63.417,207.084,59.274,207.084z"/>
	</g>
</g>
<g>
	<g>
		<path d="M483.792,207.084h-31.063c-4.143,0-7.5,3.357-7.5,7.5s3.357,7.5,7.5,7.5h31.063c4.143,0,7.5-3.357,7.5-7.5
			S487.934,207.084,483.792,207.084z"/>
	</g>
</g>
<g>
</g>
<g>
</g>
<g>
</g>
<g>
</g>
<g>
</g>
<g>
</g>
<g>
</g>
<g>
</g>
<g>
</g>
<g>
</g>
<g>
</g>
<g>
</g>
<g>
</g>
<g>
</g>
<g>
</g>
</svg>
